<mxfile host="app.diagrams.net" agent="Mozilla/5.0 (Windows NT 10.0; Win64; x64) AppleWebKit/537.36 (KHTML, like Gecko) Chrome/135.0.0.0 Safari/537.36" version="26.2.14">
  <diagram name="Page-1" id="N_bDfmvDDaP694r_ya1N">
    <mxGraphModel dx="872" dy="473" grid="1" gridSize="10" guides="1" tooltips="1" connect="1" arrows="1" fold="1" page="1" pageScale="1" pageWidth="850" pageHeight="1100" math="0" shadow="0">
      <root>
        <mxCell id="0" />
        <mxCell id="1" parent="0" />
        <mxCell id="AzqbW0Qeyta-qpVPFegX-1" value="System Comparison - Shufuti vs SharApu" style="text;html=1;align=center;verticalAlign=middle;whiteSpace=wrap;rounded=0;" vertex="1" parent="1">
          <mxGeometry x="60" y="30" width="250" height="50" as="geometry" />
        </mxCell>
        <mxCell id="AzqbW0Qeyta-qpVPFegX-3" value="&lt;h1 style=&quot;margin-top: 0px;&quot;&gt;Applying For A Job Page&lt;/h1&gt;&lt;p&gt;This is the dedicated page for applying for a job. The designs of Shufuti and SharApu are quite different. However, the fields are similar.&lt;/p&gt;" style="text;html=1;whiteSpace=wrap;overflow=hidden;rounded=0;" vertex="1" parent="1">
          <mxGeometry x="370" y="20" width="410" height="120" as="geometry" />
        </mxCell>
      </root>
    </mxGraphModel>
  </diagram>
</mxfile>
